HIERARCHY
ROOT Spine
{
    OFFSET 0.0 0.0 -0.0
    CHANNELS 6 Xposition Yposition Zposition Zrotation Xrotation Yrotation
    JOINT ShoulderCenter
    {
        OFFSET 0.0 31.320415496826172 0.0
        CHANNELS 3 Zrotation Xrotation Yrotation
        JOINT LeftShoulder
        {
            OFFSET 17.0072021484375 0.0 0.0
            CHANNELS 3 Zrotation Xrotation Yrotation
            JOINT LeftElbow
            {
                OFFSET 30.428159713745117 0.0 0.0
                CHANNELS 3 Zrotation Xrotation Yrotation
                JOINT LeftHand
                {
                    OFFSET 27.097579956054688 0.0 0.0
                    CHANNELS 3 Zrotation Xrotation Yrotation
                    End Site
                    {
                        OFFSET 10.839032173156738 0.0 0.0
                    }
                }
            }
        }
        JOINT RightShoulder
        {
            OFFSET -17.0072021484375 0.0 0.0
            CHANNELS 3 Zrotation Xrotation Yrotation
            JOINT RightElbow
            {
                OFFSET -30.428159713745117 0.0 0.0
                CHANNELS 3 Zrotation Xrotation Yrotation
                JOINT RightHand
                {
                    OFFSET -27.097579956054688 0.0 0.0
                    CHANNELS 3 Zrotation Xrotation Yrotation
                    End Site
                    {
                        OFFSET -10.839032173156738 0.0 0.0
                    }
                }
            }
        }
        End Site
        {
            OFFSET 0.0 12.528166770935059 0.0
        }
    }
    JOINT LeftHip
    {
        OFFSET 16.00997200770413 -16.00997200770413 0.0
        CHANNELS 3 Zrotation Xrotation Yrotation
        JOINT LeftKnee
        {
            OFFSET 0.0 -34.99705505371094 0.0
            CHANNELS 3 Zrotation Xrotation Yrotation
            JOINT LeftFoot
            {
                OFFSET 0.0 -46.642608642578125 0.0
                CHANNELS 3 Zrotation Xrotation Yrotation
                End Site
                {
                    OFFSET 0.0 0.0 18.65704345703125
                }
            }
        }
    }
    JOINT RightHip
    {
        OFFSET -16.00997200770413 -16.00997200770413 0.0
        CHANNELS 3 Zrotation Xrotation Yrotation
        JOINT RightKnee
        {
            OFFSET 0.0 -34.99705505371094 0.0
            CHANNELS 3 Zrotation Xrotation Yrotation
            JOINT RightFoot
            {
                OFFSET 0.0 -46.642608642578125 0.0
                CHANNELS 3 Zrotation Xrotation Yrotation
                End Site
                {
                    OFFSET 0.0 0.0 18.65704345703125
                }
            }
        }
    }
}
MOTION
Frames: 11
Frame Time: 0.03333333333333333
54.599998474121094 -55.19999694824219 138.3000030517578 -26.17530799819715 -77.83614814628977 154.19949863632345 -4.5956720752617577e-07 -2.1509397940336896e-06 -4.187632391475981 111.21047802159187 9.868124530822437 -101.97622632432339 -5.317739501156382e-07 2.363249404225733e-06 31.601954204304626 -6.3611093629270335e-15 3.1805546814635168e-15 -3.1805546814635168e-15 -100.44610877688181 8.152649810888054 108.97192268044407 -3.079997228332103e-06 7.390276962176264e-07 -28.84801400624501 6.3611093629270335e-15 1.5902773407317584e-15 1.5902773407317584e-15 -31.982157243305295 -71.25102990163768 29.222973742505996 82.84003761242839 39.064176679373055 -118.8683151994069 -3.1805546814635168e-15 0.0 0.0 173.58024037993064 -65.91313473593809 128.78560820664873 -118.27741574090857 24.89222184786626 139.2588187891167 3.180554681463516e-15 1.3241718894150476e-31 4.7708320221952736e-15
55.0 -55.099998474121094 137.89999389648438 -25.769327701729196 -78.07637583304864 155.876605181777 2.3702088028794594e-07 -4.7438463551792425e-07 -5.1065520788726975 111.4972776767401 9.818716215780825 -102.03000016066325 -3.2605273735799457e-06 1.028781374890337e-06 31.30014458277009 -6.3611093629270335e-15 3.975693351829398e-16 -3.1805546814635168e-15 -100.76277302556163 8.196044716695564 109.16373330422019 -2.2725530089508867e-06 4.732899180571008e-06 -28.919737614740043 -6.3611093629270335e-15 -8.827812596100317e-32 1.5902773407317584e-15 -33.57934545605439 -70.41356137150545 27.088847895358143 82.09492788331364 38.97427197965159 -118.50830823665783 -3.1805546814635168e-15 6.3611093629270335e-15 -3.1805546814635168e-15 175.70514003640434 -63.00880008853771 131.0339117777999 -120.99357399178795 25.51097490253203 140.89642115094048 0.0 0.0 0.0
55.29999542236328 -55.099998474121094 137.39999389648438 -26.565104079452393 -78.03518475662024 156.68990480358482 -5.688606642046475e-07 -3.137704201268814e-06 -6.34991201552225 111.07247968269381 9.607103637802192 -102.23304954661151 -2.471587928479084e-06 1.4315086359738032e-07 31.089463819256316 0.0 3.1805546814635168e-15 0.0 -100.54341011441275 8.258949411604158 109.50356719181815 3.561275135896639e-06 1.399003211442576e-06 -29.122168720840364 6.3611093629270335e-15 1.5902773407317584e-15 1.5902773407317584e-15 -34.73928797711699 -69.2723223384131 26.198329892421096 81.35013692339173 38.492738757322805 -118.76771575712617 0.0 0.0 0.0 177.05227911190443 -61.51125500166389 133.28766080667458 -122.89012466753773 25.954977047589043 142.71256839139093 0.0 0.0 0.0
55.69999694824219 -55.19999694824219 136.8000030517578 -26.175333070880328 -77.83614763832973 158.80742030090852 1.3284204629311035e-07 7.314497244667176e-06 -7.775707409993035 108.72487760588788 9.86680693482661 -102.585813326252 5.947448652618548e-07 -6.858237790251729e-07 24.789279754730934 0.0 0.0 0.0 -100.99102336643621 8.151731583779842 110.39768596799719 1.0964016003730396e-08 1.6941769291243869e-06 -29.54495633549274 0.0 0.0 -1.5902773407317584e-15 -35.15011820356964 -67.92920647724328 26.072866873447918 80.65455837320937 37.81922985977313 -119.24176417956843 3.1805546814635168e-15 -6.3611093629270335e-15 -3.1805546814635168e-15 178.5031493250499 -61.529852520194595 135.32302934981482 -123.86250601842612 26.122119318985085 144.64196506198667 0.0 0.0 0.0
56.19999694824219 -55.29999542236328 136.1999969482422 -25.01690202435811 -77.75183349316906 161.62429263943721 -2.39793988633887e-07 1.4170684006249217e-06 -9.276084704169417 109.13138834447797 9.784175812415528 -103.22210613237901 7.074644634436584e-07 -1.1899736852833378e-06 24.467021796327064 -6.3611093629270335e-15 3.1805546814635168e-15 1.7655625192200634e-31 -100.40616086421893 7.981351501321454 111.08943758714898 2.6678757674205262e-06 2.7913204909985797e-06 -29.497330886795492 6.3611093629270335e-15 0.0 0.0 -35.47747110165237 -66.81053182336706 25.803803032175747 80.14545741989019 37.29803483753971 -119.4896046587644 0.0 0.0 0.0 179.73108622928714 -62.7351050955556 136.71011088517236 -123.92867502235401 25.891399834890883 146.3849106656844 -8.827812596100317e-32 6.3611093629270335e-15 1.5902773407317584e-15
56.69999694824219 -55.5 135.59999084472656 -23.198592357181916 -77.33445651382108 165.544413574254 6.959783484811913e-07 3.5296155390347514e-06 -11.128583285233534 109.48319498781554 9.256515351639363 -104.24754693037991 -1.2922951812307533e-06 -2.2832867735451686e-06 24.334781600306183 -6.3611093629270335e-15 3.1308585145656493e-15 1.73797560485725e-31 -101.25280753813531 7.583632397024265 112.6043152510245 -8.282596027486819e-07 4.1056456192557986e-06 -29.89439919701043 0.0 7.951386703658792e-16 0.0 -35.36607389682683 -65.32391221816583 26.581782666931268 79.77553346685393 36.06645791886734 -120.44092837853226 -3.1805546814635168e-15 6.3611093629270335e-15 3.1805546814635168e-15 -176.80401244124818 -65.02035544375838 140.32110163746887 -123.72126661113842 26.018488050104434 148.264380411188 -6.3611093629270335e-15 4.413906298050159e-31 -7.951386703658792e-15
57.099998474121094 -55.400001525878906 134.8000030517578 -22.425873457959632 -77.4038225588886 167.82561296245692 7.464306397320121e-08 2.044213628091263e-06 -12.450366990854809 110.55400327706016 8.915235410529705 -105.15448179621076 -1.1510492064881657e-06 -2.5321310559264806e-07 24.544330030221275 6.3611093629270335e-15 -2.9817700138720468e-15 1.6552148617688094e-31 -100.71554156933117 7.46801064708887 113.35082573546681 -5.4027881358818255e-08 8.699009382576589e-07 -29.851875654319933 3.310429723537619e-32 -2.385416011097637e-15 1.5902773407317582e-15 -34.83043940363438 -64.28416324783079 27.57625254807742 78.99424292363628 34.94323344727346 -121.92004567863427 0.0 0.0 -3.1805546814635168e-15 -173.02489992090977 -67.2994129204214 144.79663616153178 -123.85117379238817 26.992928746903157 150.46962104263622 -8.827812596100317e-32 6.3611093629270335e-15 1.5902773407317584e-15
57.599998474121094 -55.29999542236328 133.8000030517578 -19.767169122018995 -77.46988606662387 170.37551291846236 -1.0234825171252107e-07 1.706247347216894e-07 -11.761283995794047 111.21751588631935 8.057577216554446 -105.82998460096566 3.394087818783596e-06 -5.208910067868915e-07 24.84221438665836 0.0 -1.987846675914698e-16 0.0 -104.9734180151663 5.182390403067898 115.3142847874658 7.527671192006122e-07 3.241060420521372e-07 -33.989130362644964 -6.3611093629270335e-15 -7.951386703658792e-16 -4.4139062980501586e-32 -30.11277285377762 -63.89371269328351 32.57534060661177 77.8511990834369 33.686808804190484 -124.26446736056667 0.0 6.3611093629270335e-15 0.0 -173.87257501350868 -70.11447685322489 144.80391409682986 -123.30559043493297 29.554430556881364 149.57872291844808 -3.1805546814635168e-15 6.3611093629270335e-15 3.1805546814635168e-15
57.900001525878906 -55.19999694824219 132.79998779296875 -17.102693284494904 -77.43008582658497 171.90952357386627 -2.1437654314576514e-08 2.837715347580658e-06 -10.156677078605167 110.67766510994903 7.210450896873463 -106.08146809069868 -1.9742610926327757e-06 6.63246610791046e-07 24.496839345636076 0.0 0.0 -3.1805546814635168e-15 -103.71274293193648 5.584954895670291 117.11612394101614 2.577474990469272e-06 1.4176315590359013e-06 -34.5847139341219 6.3611093629270335e-15 1.5902773407317584e-15 -8.827812596100317e-32 -23.658307985075353 -63.33936808980866 39.45715571240596 76.42521438770743 32.51141626571477 -127.26976406765239 3.1805546814635168e-15 -6.3611093629270335e-15 6.3611093629270335e-15 179.6851998475676 -72.81223985734232 139.3063876710356 -122.35132190108003 32.33597787549757 147.0702131896562 -8.827812596100317e-32 -6.3611093629270335e-15 -1.5902773407317584e-15
58.20000076293945 -55.19999694824219 132.0 -13.626984707604732 -77.48693942098572 173.9568645730361 -3.6528596747802415e-07 3.1663958644935057e-06 -8.677829989247636 111.14858722838521 6.822397745620969 -106.82909165719346 8.503990542094123e-07 1.2567584463339978e-06 24.80850392912417 0.0 3.3793393490549868e-15 0.0 -102.8247640208174 5.4339507900655875 118.7208281092737 1.7387458900267105e-06 1.2751705858676353e-06 -34.87053015739091 2.2069531490250793e-32 7.951386703658792e-16 -3.1805546814635168e-15 -17.902085893929005 -62.538081366739135 44.49975370998304 74.80884420169788 32.335598522658 -128.74550345869682 0.0 0.0 -3.1805546814635168e-15 171.43359491507385 -74.34457309495403 131.41132849381404 -121.77678837876346 34.29113915371053 144.94983656480878 3.180554681463516e-15 -6.361109362927033e-15 -3.180554681463516e-15
58.499996185302734 -55.400001525878906 131.1999969482422 -7.4314196034882025 -77.14817396491543 178.59237701372535 -2.132279880794676e-07 -3.597758310691133e-07 -7.407494985135155 111.43736646154574 6.3507143740851175 -108.0524450345814 -1.0351174123531936e-06 1.276158441920006e-06 25.54592984118707 2.758691436281349e-33 -9.939233379573489e-17 3.1805546814635164e-15 -102.25878525718693 4.817496637916394 120.94704196287938 4.362258838849479e-06 2.0590588088482425e-06 -35.43075728385298 6.3611093629270335e-15 1.7655625192200634e-31 3.1805546814635168e-15 -11.639534467958311 -61.14649796540773 49.58059600456301 73.34589476508006 32.153148918001285 -130.13766023998224 3.1805546814635168e-15 6.3611093629270335e-15 -1.7655625192200634e-31 161.90769604872244 -75.22302614417099 121.47958374473846 -121.66946640880671 36.00070792910971 142.31043861781805 0.0 0.0 -1.5902773407317584e-15
